<?xml version="1.0" standalone="no"?>
<!DOCTYPE svg PUBLIC "-//W3C//DTD SVG 20010904//EN"
 "http://www.w3.org/TR/2001/REC-SVG-20010904/DTD/svg10.dtd">
<svg version="1.0" xmlns="http://www.w3.org/2000/svg"
 width="300.000000pt" height="300.000000pt" viewBox="0 0 300.000000 300.000000"
 preserveAspectRatio="xMidYMid meet">
<metadata>
Created by potrace 1.10, written by Peter Selinger 2001-2011
</metadata>
<g transform="translate(0.000000,300.000000) scale(0.100000,-0.100000)"
fill="#000000" stroke="none">
<path d="M1315 2595 c-184 -28 -362 -99 -521 -205 -100 -67 -256 -222 -321
-320 -152 -227 -217 -440 -217 -710 0 -267 62 -472 210 -696 54 -83 174 -218
223 -253 l26 -19 80 94 c44 52 80 100 80 106 0 38 -52 -11 -163 -150 -11 -15
-16 -13 -44 16 l-32 32 54 55 c29 30 51 58 47 62 -4 4 -32 -18 -63 -48 l-55
-54 -29 35 c-16 19 -30 37 -30 40 0 3 25 25 55 48 30 24 53 48 49 53 -6 11 -6
11 -77 -46 -26 -21 -49 -36 -50 -34 -2 2 -15 20 -30 40 l-26 37 62 37 c34 21
64 39 66 41 1 1 0 7 -4 13 -4 7 -28 -4 -65 -29 -32 -22 -63 -40 -67 -40 -4 0
-18 18 -31 40 l-23 40 66 32 c36 18 65 38 65 46 0 8 -3 12 -7 10 -5 -2 -36
-18 -70 -36 l-63 -32 -20 40 c-11 21 -20 41 -20 44 0 3 49 24 110 47 64 24
110 48 110 55 0 14 -6 12 -159 -50 -36 -14 -68 -23 -72 -19 -10 13 -29 75 -24
82 2 4 28 13 57 20 58 13 86 26 76 36 -6 6 -85 -13 -131 -31 -10 -4 -18 8 -26
40 -6 25 -11 47 -11 49 0 2 33 10 74 17 51 9 73 16 70 25 -4 9 -20 9 -75 -2
-39 -8 -72 -13 -74 -11 -1 1 -6 24 -9 50 l-7 47 72 3 c48 2 74 7 77 16 3 10
-12 12 -72 6 -64 -6 -76 -4 -76 8 0 9 -3 29 -6 46 l-6 31 76 3 c42 2 76 7 76
13 0 6 -34 11 -75 13 l-75 3 6 42 c4 23 7 43 8 43 1 1 81 -8 189 -21 41 -5 47
-3 47 13 0 17 -14 20 -120 32 l-120 12 6 42 c4 22 8 43 10 45 2 2 34 -4 71
-12 37 -8 71 -13 76 -10 17 10 -5 20 -73 33 -38 7 -70 15 -70 17 0 8 22 93 24
93 2 0 35 -11 74 -24 51 -18 72 -21 72 -12 0 6 -31 22 -70 35 -38 12 -70 24
-70 25 0 5 32 80 35 84 2 2 33 -10 69 -27 40 -18 68 -26 72 -20 8 13 11 10
-68 44 l-67 28 21 41 c11 22 22 42 23 44 1 2 30 -14 65 -34 43 -25 65 -33 72
-26 8 8 -9 21 -56 44 -36 18 -66 36 -66 41 0 12 40 77 47 77 2 0 47 -30 99
-66 66 -46 99 -63 106 -56 7 7 4 13 -10 21 -11 6 -56 36 -101 66 -87 60 -86
59 -44 113 l19 23 53 -46 c29 -25 57 -45 62 -45 20 0 7 19 -38 56 -27 20 -52
41 -57 46 -6 5 4 22 24 43 l34 35 53 -52 c29 -28 56 -49 60 -45 4 4 -17 31
-45 60 l-52 53 35 34 36 35 27 -35 c52 -67 70 -85 78 -78 4 4 -14 34 -39 67
l-46 59 39 27 c22 16 42 26 43 24 2 -2 18 -29 37 -59 19 -30 35 -57 36 -59 2
-1 7 0 13 4 7 4 -4 28 -29 65 -22 32 -40 61 -40 64 0 5 65 46 74 46 3 0 29
-46 57 -102 28 -57 52 -104 54 -106 1 -1 10 0 19 4 14 5 8 22 -41 115 -31 60
-54 110 -52 112 2 1 21 10 41 19 l37 17 27 -69 c15 -39 31 -70 36 -70 14 0 9
25 -17 84 -14 31 -25 58 -25 60 0 2 18 11 41 20 40 16 59 14 59 -6 0 -31 33
-118 45 -118 11 0 8 16 -11 72 -13 39 -24 72 -24 74 0 2 85 24 94 24 2 0 10
-34 17 -75 11 -69 17 -83 31 -70 3 3 -1 37 -9 76 -8 39 -13 72 -11 74 1 1 24
6 51 9 l47 7 0 -44 c0 -58 10 -107 22 -107 6 0 7 29 3 74 l-7 74 42 7 c23 4
44 5 47 2 3 -3 5 -60 4 -126 -2 -103 0 -121 13 -121 14 0 16 19 16 125 0 123
0 125 23 125 12 0 33 -3 46 -7 22 -6 23 -8 16 -79 -4 -49 -3 -74 4 -74 11 0
19 38 23 105 l3 40 45 -3 c24 -2 46 -5 48 -7 4 -3 -16 -109 -25 -132 -3 -7 2
-13 10 -13 11 0 19 20 28 70 7 39 17 70 23 70 14 0 86 -20 86 -24 0 -2 -9 -29
-20 -61 -22 -64 -25 -85 -11 -85 5 0 19 32 30 70 12 39 25 70 30 70 12 0 81
-29 81 -34 0 -3 -12 -32 -27 -66 -17 -40 -23 -64 -16 -71 6 -6 19 15 37 61 15
38 31 70 34 69 4 0 23 -8 44 -17 l36 -17 -58 -105 c-31 -58 -56 -108 -53 -112
13 -22 34 2 83 92 29 55 57 100 62 100 15 0 68 -33 68 -43 0 -5 -11 -23 -24
-40 -51 -69 -60 -87 -43 -87 9 0 32 27 52 59 l37 60 39 -26 c21 -14 39 -28 39
-31 0 -3 -20 -29 -45 -58 -43 -50 -55 -74 -36 -74 5 0 28 25 51 55 23 30 46
55 51 55 5 0 23 -14 41 -30 l33 -30 -53 -50 c-30 -28 -50 -55 -46 -61 4 -7 27
9 60 42 l54 53 30 -29 c16 -16 30 -34 30 -39 0 -6 -15 -21 -33 -34 -58 -41
-79 -61 -72 -72 4 -7 27 7 60 35 29 25 57 45 62 45 4 0 20 -16 36 -35 l27 -35
-100 -66 c-55 -37 -100 -71 -100 -77 0 -14 22 -3 121 63 50 34 92 60 93 58 16
-22 47 -80 45 -82 -2 -2 -32 -18 -66 -35 -35 -17 -63 -36 -63 -41 0 -16 15
-12 79 24 l61 35 20 -40 c12 -22 18 -43 16 -48 -3 -5 -33 -19 -66 -31 -33 -12
-60 -29 -60 -36 0 -18 -2 -19 76 16 37 17 68 29 69 28 11 -19 32 -89 27 -91
-4 -2 -35 -12 -69 -22 -35 -10 -63 -24 -63 -31 0 -9 16 -7 61 7 34 11 65 22
70 25 9 5 21 -19 33 -68 6 -26 5 -27 -69 -39 -49 -8 -75 -17 -75 -26 0 -16 -6
-16 81 2 40 9 73 14 74 13 1 -2 5 -22 8 -44 l5 -42 -47 -5 c-25 -4 -79 -9
-118 -13 -62 -6 -73 -9 -73 -25 0 -16 6 -18 43 -13 23 2 76 8 118 12 l77 8 5
-40 c3 -22 3 -44 0 -49 -3 -6 -36 -7 -74 -4 -56 5 -69 3 -69 -9 0 -11 17 -14
76 -14 l77 0 -7 -37 c-3 -21 -6 -43 -6 -49 0 -7 -22 -8 -71 -2 -40 5 -74 7
-76 4 -14 -14 15 -26 65 -26 76 0 84 -7 76 -58 -7 -48 -10 -48 -96 -28 -46 11
-58 11 -58 1 0 -14 18 -20 93 -31 l48 -6 -6 -42 c-4 -22 -10 -44 -14 -48 -3
-4 -35 2 -70 12 -71 23 -81 24 -81 10 0 -5 32 -19 70 -30 39 -11 70 -24 70
-27 0 -17 -24 -83 -31 -83 -4 0 -55 20 -115 45 -59 25 -109 45 -110 45 -2 0
-4 -6 -4 -12 0 -7 50 -33 110 -57 61 -24 110 -48 110 -52 0 -13 -33 -79 -39
-79 -3 0 -34 16 -69 34 -35 19 -65 30 -68 24 -8 -12 -10 -10 64 -47 34 -17 62
-35 62 -39 0 -4 -11 -24 -23 -44 l-23 -37 -55 39 c-30 22 -60 40 -66 40 -28 0
-10 -21 47 -56 33 -20 60 -40 60 -43 0 -3 -13 -22 -29 -41 l-29 -34 -57 48
c-36 31 -60 45 -66 39 -6 -6 12 -27 51 -57 l60 -47 -28 -35 c-15 -19 -30 -34
-34 -34 -4 0 -28 23 -54 50 -26 27 -51 50 -55 50 -22 0 -5 -31 42 -75 l51 -47
-28 -29 c-15 -16 -31 -29 -35 -29 -5 0 -121 134 -156 179 -1 2 -9 -2 -17 -8
-13 -11 -3 -27 67 -111 45 -54 86 -99 90 -99 17 -2 141 126 203 209 322 427
336 1005 34 1456 -68 101 -223 256 -324 324 -266 178 -590 253 -891 205z" fill="#fff"/>
</g> 
</svg>
